<svg viewBox="0 0 120 120" xmlns="http://www.w3.org/2000/svg" width="1024" height="1024">
  <g transform="translate(10,10)">
    <path fill="#1717AB" d="M33.9,28.1c-3.3,0-5.9,2.6-5.9,5.9v27.6c0,2.5,0.9,4.7,2.7,6.5c1.7,1.7,4,2.7,6.5,2.7s4.7-0.9,6.5-2.7L68,43.7
      c1.7-1.7,2.7-4,2.7-6.5c0-2.4-1-4.7-2.7-6.5C66.3,29,64,28,61.5,28L33.9,28.1L33.9,28.1z M37.2,75.9c-3.8,0-7.4-1.5-10.1-4.2
      s-4.2-6.3-4.2-10.1V34c0-6.1,5-11.1,11.1-11.1h27.6c3.8,0,7.4,1.5,10.2,4.2c2.7,2.7,4.2,6.3,4.2,10.1s-1.5,7.4-4.2,10.2L47.4,71.7
      C44.6,74.4,41,75.9,37.2,75.9"/>
    <path fill="#1717AB" d="M14,44.1c-1.4,0-2.6-1.2-2.6-2.6V34c0-12.4,10.1-22.5,22.5-22.5h27.2c3.4,0,6.6,0.6,9.8,1.8
      c1.3,0.5,2,2,1.5,3.4c-0.5,1.3-2,2-3.4,1.5c-2.5-1-5.2-1.5-7.9-1.5H34c-9.5,0-17.3,7.8-17.3,17.3v7.6C16.6,43,15.5,44.1,14,44.1
       M69.9,64.1c-0.7,0-1.3-0.3-1.9-0.8c-1-1-1-2.7,0.1-3.7l8.1-7.9c6.9-6.9,8-17.9,2.5-26.1c-0.8-1.2-0.5-2.8,0.7-3.6
      c1.2-0.8,2.8-0.5,3.6,0.7c6.9,10.2,5.6,23.9-3.1,32.7l-8.1,7.9C71.2,63.8,70.6,64.1,69.9,64.1 M7.1,81.2c-0.9,0-1.8-0.5-2.3-1.3
      c-0.3-0.5-0.5-1-0.8-1.5c-1-1.9-1.8-3.9-2.4-6c-0.7-2.2-1-4.5-1.1-7.2L0,54.4V34C0,15.2,15.2,0,34,0h6.3c1.4,0,2.6,1.2,2.6,2.6
      s-1.2,2.6-2.6,2.6H34C18.1,5.2,5.2,18.1,5.2,34v20.4l0.5,10.8c0.1,2.2,0.4,4.1,0.9,5.9c0.5,1.8,1.2,3.5,2.1,5.1
      c0.2,0.4,0.5,0.9,0.7,1.3c0.7,1.2,0.3,2.8-1,3.5C7.9,81.1,7.5,81.2,7.1,81.2 M37.2,87.3c-6.9,0-13.4-2.7-18.2-7.5
      s-7.6-11.3-7.6-18.2v-6.4c0-1.4,1.2-2.6,2.6-2.6s2.6,1.2,2.6,2.6v6.4c0,5.5,2.1,10.7,6,14.6c3.9,3.9,9,6,14.6,6s10.7-2.1,14.6-6
      l6.7-6.7c1-1,2.7-1,3.7,0c1,1,1,2.7,0,3.7l-6.7,6.7C50.6,84.7,44.1,87.3,37.2,87.3 M37.3,98.8c-2.5,0-5.1-0.2-7.6-0.8
      c-4.6-0.9-9.2-2.8-13.1-5.5c-0.5-0.3-1-0.7-1.4-1.1c-0.2-0.2-0.4-0.4-0.6-0.5c-1.1-0.9-1.3-2.5-0.4-3.7c0.9-1.1,2.5-1.3,3.7-0.4
      c0.3,0.2,0.6,0.5,0.8,0.7c0.3,0.2,0.6,0.5,0.9,0.7c3.4,2.3,7.2,3.9,11.2,4.7c10.9,2.1,21.5-1,29.2-8.7l23.7-23.7
      c6.2-6.2,9.8-14.2,10-22.4c0.2-9.3-3.3-17.9-10.1-24.2c-5.9-5.6-14.1-8.7-22.9-8.7h-6.7c-1.4,0-2.6-1.2-2.6-2.6S52.5,0,53.9,0h6.7
      c10.1,0,19.5,3.6,26.4,10.1c7.8,7.4,12,17.4,11.7,28.1c-0.2,9.6-4.3,18.8-11.6,26L63.5,87.9C56.4,95,47.2,98.8,37.3,98.8"/>
  </g>
</svg>
